<svg version="1.1" viewBox="-2.8 -1.4 615 267" xmlns="http://www.w3.org/2000/svg">
  <g transform="translate(0 -6.9822)">
    <path d="m213.51 107.86v-7.0241h22.373v14.048h-22.373z" style="fill:#1ed760"/>
    <path d="m31.925 239.24v-2.0812h24.975v-69.2h21.297l0.14785 34.297c0.0813 18.863 0.26756 34.417 0.41386 34.563 0.1463 0.14613 4.0684 0.34111 8.7158 0.43329l8.4498 0.16759-7e-4 -55.282-7.1e-4 -55.282h22.373v110.3h16.65v-96.256h22.373v96.256h16.65v-146.21h22.373v146.21h17.69v-109.26h21.332v109.26h24.975v4.1624h-228.41z" style="fill:#1ed760;stroke-width:.5203"/>
    <path d="m134.42 121.91v-7.0241h23.414v14.048h-23.414z" style="fill:#1ed760;stroke-width:.5203"/>
    <path d="m95.922 107.34v-7.0241h22.893v14.048h-22.893z" style="fill:#1ed760;stroke-width:.5203"/>
    <path d="m56.899 122.43v-7.5444h21.853v15.089h-21.853z" style="fill:#1ed760;stroke-width:.5203"/>
    <path d="m56.899 148.45v-7.5444h21.853v15.089h-21.853z" style="fill:#1ed760;stroke-width:.5203"/>
    <path d="m95.922 80.288v-7.0241h22.893v14.048h-22.893z" style="fill:#1ed760;stroke-width:.5203"/>
    <path d="m134.85 95.247c0.11711-3.6486 0.24481-6.6678 0.28379-6.7093 0.039-0.04146 5.1634-0.16117 11.387-0.26602l11.317-0.19064v13.8h-23.201z" style="fill:#1ed760;stroke-width:.5203"/>
    <path d="m173.45 70.922v-7.0241h23.414v14.048h-23.414z" style="fill:#1ed760;stroke-width:.5203"/>
    <path d="m173.45 43.866v-7.0241h23.414v14.048h-23.414z" style="fill:#1ed760;stroke-width:.5203"/>
    <path d="m213.51 80.808v-7.5444h22.373v15.089h-22.373z" style="fill:#1ed760;stroke-width:.5203"/>
  </g>
  <text transform="translate(-2.8,-1.4)" style="fill:black;font-family:sans-serif;font-size:40px;line-height:1.25;shape-inside:url(#rect4259);white-space:pre" xml:space="preserve"/>
  <text transform="translate(-2.8,-1.4)" style="fill:#000000;font-family:sans-serif;font-size:40px;line-height:1.25;shape-inside:url(#rect6927);white-space:pre" xml:space="preserve"/>
  <text transform="translate(-31.083 -50.357)" x="-72.559799" style="fill:#1ed760;font-family:'Circular Std Bold';font-size:96px;line-height:1.25;shape-inside:url(#rect3212);white-space:pre" xml:space="preserve"/>
  <text transform="translate(254.13 201.41)" x="-72.559799" style="fill:#1ed760;font-family:'Circular Std Bold';font-size:113.33px;line-height:1.25;shape-inside:url(#rect3212);white-space:pre" xml:space="preserve"/>
  <text
     xml:space="preserve"
     transform="translate(254.13156,201.41125)"
     id="text3210"
     style="font-style:normal;font-variant:normal;font-weight:normal;font-stretch:normal;font-size:113.333px;line-height:1.25;font-family:'Circular Std Bold';-inkscape-font-specification:'Circular Std Bold, ';text-align:start;white-space:pre;shape-inside:url(#rect3212);fill:#1ed760;fill-opacity:1"
     x="-72.559799"
     y="0"><tspan
       x="0"
       y="0"
       id="tspan9958">Tunes</tspan></text>
</svg>
